<svg id="svg" version="1.1" xmlns="http://www.w3.org/2000/svg" xmlns:xlink="http://www.w3.org/1999/xlink" width="400" height="275.8139534883721" viewBox="0, 0, 400,275.8139534883721"><g id="svgg"><path id="path0" d="M129.726 71.205 C 126.950 72.272,124.529 75.112,123.874 78.069 C 123.486 79.826,123.488 174.647,123.877 176.138 C 125.241 181.363,129.623 184.063,135.961 183.582 C 139.074 183.346,260.926 183.346,264.039 183.582 C 270.377 184.063,274.759 181.363,276.123 176.138 C 276.524 174.600,276.524 79.469,276.123 77.931 C 275.339 74.926,272.966 72.228,270.196 71.192 L 268.669 70.621 199.921 70.635 C 131.680 70.649,131.162 70.654,129.726 71.205 M240.200 104.761 C 245.662 111.672,253.095 121.138,253.647 121.885 C 253.946 122.290,254.970 123.578,255.923 124.748 C 256.876 125.918,257.655 126.936,257.655 127.010 C 257.655 127.151,254.114 131.696,244.966 143.297 C 242.007 147.049,239.345 150.449,239.049 150.853 C 238.754 151.256,238.165 151.993,237.741 152.490 L 236.970 153.393 199.986 153.393 L 163.003 153.393 162.122 152.312 C 161.638 151.717,160.869 150.752,160.414 150.167 C 159.959 149.582,157.487 146.435,154.921 143.172 C 152.355 139.910,149.438 136.196,148.438 134.919 C 147.439 133.642,145.659 131.386,144.483 129.907 C 141.930 126.695,141.980 127.323,144.077 124.748 C 145.030 123.578,146.054 122.290,146.353 121.885 C 146.905 121.138,154.338 111.672,159.800 104.761 L 162.797 100.970 200.000 100.970 L 237.203 100.970 240.200 104.761 M197.103 110.803 C 183.381 114.476,180.000 130.738,191.386 138.303 C 204.486 147.005,220.699 132.994,213.731 118.992 C 210.874 113.252,202.804 109.277,197.103 110.803 M208.676 118.094 C 210.511 119.705,210.486 122.156,208.619 123.763 C 205.072 126.814,200.202 121.346,203.651 118.186 C 205.105 116.853,207.219 116.815,208.676 118.094 M162.379 154.888 C 161.981 155.286,161.655 155.699,161.655 155.806 C 161.655 155.913,161.334 156.372,160.942 156.828 C 160.550 157.283,159.961 158.009,159.632 158.442 C 159.303 158.874,158.755 159.520,158.414 159.877 C 158.072 160.234,157.793 160.646,157.793 160.792 C 157.793 160.938,157.695 161.099,157.576 161.149 C 157.457 161.200,156.929 161.800,156.404 162.482 C 155.878 163.165,155.261 163.910,155.031 164.138 C 154.802 164.365,154.276 165.006,153.863 165.562 C 153.450 166.118,152.955 166.739,152.763 166.942 C 152.571 167.144,152.043 167.807,151.591 168.414 C 150.836 169.426,150.084 170.353,149.379 171.140 C 149.228 171.310,148.735 171.940,148.286 172.542 C 147.836 173.143,147.277 173.832,147.044 174.071 C 146.811 174.311,146.372 174.850,146.069 175.269 C 144.890 176.898,144.386 177.528,143.655 178.288 C 143.238 178.722,142.895 179.160,142.892 179.263 C 142.890 179.365,142.502 179.883,142.031 180.414 C 141.559 180.945,140.989 181.659,140.762 182.000 C 140.345 182.629,139.586 182.851,139.586 182.345 C 139.586 182.193,139.679 182.068,139.793 182.067 C 139.907 182.066,140.293 181.635,140.651 181.109 C 141.009 180.583,141.568 179.855,141.893 179.491 C 142.544 178.761,142.571 178.728,145.051 175.585 C 146.009 174.372,147.250 172.828,147.810 172.154 C 148.370 171.480,149.551 169.990,150.436 168.844 C 151.320 167.697,152.375 166.385,152.781 165.928 C 153.186 165.472,154.037 164.417,154.672 163.584 C 155.307 162.751,156.053 161.821,156.329 161.517 C 156.606 161.214,157.263 160.407,157.788 159.724 C 158.314 159.041,158.810 158.421,158.891 158.345 C 158.972 158.269,159.405 157.710,159.854 157.103 C 160.302 156.497,160.798 155.867,160.956 155.704 C 161.113 155.541,161.551 155.018,161.929 154.543 C 162.325 154.045,162.719 153.781,162.859 153.921 C 162.999 154.061,162.796 154.471,162.379 154.888 M238.849 155.448 C 239.108 155.752,239.689 156.497,240.141 157.103 C 240.593 157.710,241.028 158.269,241.109 158.345 C 241.190 158.421,241.686 159.041,242.212 159.724 C 242.737 160.407,243.394 161.214,243.671 161.517 C 243.947 161.821,244.693 162.751,245.328 163.584 C 245.963 164.417,246.814 165.472,247.219 165.928 C 247.625 166.385,248.700 167.723,249.610 168.903 C 250.519 170.082,251.646 171.509,252.114 172.075 C 253.014 173.164,255.309 176.027,256.690 177.783 C 258.857 180.539,260.018 181.939,260.207 182.023 C 260.562 182.181,260.433 182.621,260.032 182.621 C 259.822 182.621,259.464 182.341,259.238 182.000 C 259.011 181.659,258.441 180.945,257.969 180.414 C 257.498 179.883,257.110 179.365,257.108 179.263 C 257.105 179.160,256.762 178.726,256.345 178.297 C 255.928 177.868,255.338 177.169,255.034 176.743 C 254.164 175.521,253.415 174.562,252.956 174.080 C 252.723 173.836,252.164 173.143,251.714 172.542 C 251.265 171.940,250.772 171.314,250.621 171.149 C 250.469 170.984,249.910 170.312,249.379 169.655 C 248.848 168.998,248.290 168.326,248.138 168.162 C 247.986 167.997,247.304 167.117,246.623 166.207 C 245.942 165.297,245.197 164.365,244.968 164.138 C 244.739 163.910,244.122 163.165,243.596 162.482 C 243.071 161.800,242.543 161.200,242.424 161.149 C 242.305 161.099,242.207 160.938,242.207 160.792 C 242.207 160.646,241.928 160.234,241.586 159.877 C 241.245 159.520,240.697 158.874,240.368 158.442 C 240.039 158.009,239.450 157.283,239.058 156.828 C 238.666 156.372,238.345 155.913,238.345 155.806 C 238.345 155.699,238.028 155.294,237.640 154.907 C 237.253 154.519,237.016 154.073,237.113 153.915 C 237.220 153.742,237.507 153.880,237.835 154.262 C 238.134 154.611,238.590 155.145,238.849 155.448 " stroke="none" fill="#1c1810" fill-rule="evenodd"></path><path id="path1" d="M118.345 19.504 C 112.025 20.022,102.450 23.756,98.004 27.436 C 97.736 27.658,97.021 28.224,96.414 28.696 C 88.953 34.489,83.515 43.853,81.599 54.207 C 81.052 57.159,81.074 219.367,81.622 222.345 C 82.755 228.512,86.879 238.270,89.083 240.000 C 89.180 240.076,89.648 240.676,90.123 241.333 L 90.987 242.527 96.591 235.540 C 99.673 231.696,110.243 218.497,120.081 206.207 L 137.967 183.862 134.708 183.685 C 128.429 183.344,125.191 181.086,123.881 176.138 C 123.489 174.654,123.482 79.842,123.874 78.069 C 124.540 75.061,126.958 72.257,129.804 71.192 L 131.331 70.621 200.000 70.621 L 268.669 70.621 270.196 71.192 C 272.966 72.228,275.339 74.926,276.123 77.931 C 276.528 79.482,276.524 174.607,276.119 176.138 C 274.810 181.086,271.571 183.344,265.294 183.685 L 262.037 183.862 277.161 202.759 C 285.479 213.152,296.049 226.352,300.648 232.093 L 309.011 242.530 309.876 241.334 C 310.352 240.676,310.820 240.076,310.917 240.000 C 313.121 238.270,317.245 228.512,318.378 222.345 C 318.926 219.367,318.948 57.159,318.401 54.207 C 317.097 47.160,313.806 39.697,309.969 35.086 C 307.846 32.536,305.548 30.238,303.571 28.691 C 302.973 28.222,302.264 27.658,301.996 27.436 C 298.538 24.574,291.758 21.530,285.655 20.099 L 282.897 19.452 201.241 19.427 C 156.331 19.413,119.028 19.448,118.345 19.504 M181.849 101.944 C 164.670 113.514,164.512 139.203,181.542 151.949 L 183.085 153.103 200.000 153.103 L 216.915 153.103 218.458 151.949 C 235.473 139.214,235.315 113.504,218.151 101.944 L 216.697 100.966 200.000 100.966 L 183.303 100.966 181.849 101.944 M204.921 111.413 C 221.579 117.217,216.908 141.764,199.310 140.899 C 181.134 140.005,179.342 115.557,197.103 110.803 C 198.453 110.442,203.196 110.812,204.921 111.413 " stroke="none" fill="#fa3c2c" fill-rule="evenodd"></path><path id="path2" d="M0.000 137.931 L 0.000 275.862 200.000 275.862 L 400.000 275.862 400.000 137.931 L 400.000 0.000 200.000 0.000 L 0.000 0.000 0.000 137.931 M284.690 19.572 C 293.469 21.289,300.591 25.022,306.768 31.144 C 313.476 37.792,317.031 44.814,318.872 55.051 C 319.297 57.414,319.297 218.999,318.872 221.363 C 318.372 224.140,317.777 226.864,317.541 227.448 C 317.419 227.752,317.086 228.745,316.801 229.655 C 315.840 232.730,312.218 239.163,309.891 241.929 C 309.054 242.923,308.888 242.942,308.115 242.138 L 307.518 241.517 307.856 242.173 C 308.356 243.141,307.938 243.801,305.451 245.966 C 302.293 248.716,298.378 251.586,297.785 251.586 C 297.707 251.586,297.181 251.874,296.615 252.225 C 296.049 252.576,294.717 253.211,293.655 253.636 C 292.593 254.061,291.476 254.509,291.172 254.632 C 290.869 254.754,289.876 255.059,288.966 255.308 C 281.961 257.230,288.234 257.103,200.000 257.103 C 111.766 257.103,118.039 257.230,111.034 255.308 C 110.124 255.059,109.131 254.754,108.828 254.632 C 108.524 254.509,107.407 254.061,106.345 253.636 C 105.283 253.211,103.951 252.576,103.385 252.225 C 102.819 251.874,102.293 251.586,102.215 251.586 C 101.590 251.586,97.661 248.681,94.449 245.842 C 91.988 243.667,91.653 243.127,92.157 242.148 L 92.482 241.517 91.885 242.138 C 91.053 243.004,90.944 242.958,89.575 241.172 C 86.891 237.672,84.186 232.761,83.155 229.517 C 82.890 228.683,82.574 227.752,82.455 227.448 C 82.222 226.859,81.621 224.102,81.128 221.363 C 80.703 218.999,80.703 57.414,81.128 55.051 C 84.512 36.237,97.016 23.210,115.172 19.586 C 119.105 18.801,280.679 18.787,284.690 19.572 M162.173 102.481 C 161.813 103.011,161.424 103.445,161.310 103.446 C 161.197 103.447,161.103 103.581,161.103 103.744 C 161.103 103.906,160.948 104.196,160.759 104.388 C 160.569 104.580,159.979 105.274,159.448 105.931 C 158.917 106.588,158.328 107.282,158.138 107.474 C 157.948 107.666,157.793 107.899,157.793 107.992 C 157.793 108.085,157.668 108.311,157.514 108.494 C 157.361 108.678,156.866 109.262,156.415 109.793 C 155.687 110.651,155.407 111.172,155.677 111.172 C 155.727 111.172,156.503 110.228,157.401 109.075 C 159.254 106.695,161.409 103.947,162.297 102.833 L 162.897 102.080 172.015 102.055 C 177.029 102.042,181.312 101.917,181.532 101.778 C 181.778 101.623,178.270 101.524,172.380 101.521 L 162.830 101.517 162.173 102.481 M218.974 102.071 C 220.343 102.906,222.249 104.655,224.069 106.745 C 224.638 107.399,225.103 107.803,225.103 107.643 C 225.103 107.321,222.252 104.344,220.611 102.954 C 220.037 102.467,219.727 102.064,219.921 102.058 C 220.116 102.052,224.062 102.056,228.690 102.069 L 237.103 102.091 237.655 102.753 C 237.959 103.118,238.890 104.305,239.724 105.390 C 240.559 106.476,242.092 108.438,243.131 109.751 C 244.170 111.064,245.349 112.562,245.751 113.080 C 247.061 114.767,247.707 115.454,247.715 115.170 C 247.720 115.016,247.445 114.582,247.103 114.204 C 246.762 113.826,246.115 113.021,245.665 112.414 C 245.215 111.807,244.719 111.177,244.562 111.014 C 244.404 110.851,243.966 110.313,243.586 109.818 C 243.207 109.323,242.741 108.751,242.552 108.548 C 242.362 108.344,242.207 108.098,242.207 108.000 C 242.207 107.902,242.052 107.666,241.862 107.474 C 241.672 107.282,241.083 106.588,240.552 105.931 C 240.021 105.274,239.431 104.580,239.241 104.388 C 239.052 104.196,238.897 103.906,238.897 103.744 C 238.897 103.581,238.803 103.447,238.690 103.446 C 238.576 103.445,238.187 103.011,237.827 102.481 L 237.170 101.517 227.620 101.518 L 218.069 101.519 218.974 102.071 M177.416 104.807 C 176.030 106.161,174.897 107.419,174.897 107.601 C 174.897 107.784,175.362 107.399,175.931 106.745 C 176.500 106.092,177.223 105.300,177.537 104.985 C 177.851 104.671,178.643 103.948,179.297 103.379 C 179.951 102.810,180.362 102.345,180.210 102.345 C 180.059 102.345,178.801 103.453,177.416 104.807 M174.000 108.562 C 173.734 108.917,173.519 109.370,173.522 109.569 C 173.524 109.768,173.788 109.522,174.108 109.023 C 174.787 107.963,174.706 107.617,174.000 108.562 M225.381 108.032 C 225.382 108.166,225.630 108.648,225.931 109.103 C 226.232 109.559,226.480 109.764,226.481 109.561 C 226.482 109.357,226.234 108.875,225.931 108.489 C 225.628 108.103,225.380 107.898,225.381 108.032 M154.506 112.155 C 154.139 112.694,153.489 113.531,153.062 114.016 C 152.634 114.500,152.287 115.021,152.289 115.172 C 152.291 115.324,152.569 115.123,152.905 114.726 C 154.804 112.483,155.294 111.828,155.302 111.517 C 155.314 111.016,155.243 111.073,154.506 112.155 M171.382 112.748 C 171.194 113.149,171.091 113.528,171.153 113.590 C 171.319 113.756,171.913 112.564,171.811 112.270 C 171.763 112.131,171.570 112.346,171.382 112.748 M228.140 112.292 C 228.139 112.529,228.320 112.963,228.543 113.258 C 229.070 113.954,229.075 113.653,228.553 112.652 C 228.327 112.218,228.141 112.056,228.140 112.292 M151.145 116.451 C 150.516 117.271,149.869 118.078,149.246 118.816 C 149.092 118.999,148.966 119.233,148.966 119.336 C 148.966 119.439,148.655 119.811,148.276 120.162 C 147.897 120.514,147.586 120.878,147.586 120.972 C 147.586 121.066,147.431 121.316,147.241 121.527 C 146.831 121.985,146.605 122.273,145.527 123.715 C 145.077 124.316,144.519 125.011,144.286 125.259 C 142.576 127.080,142.566 126.898,144.483 129.042 C 144.824 129.423,145.103 129.818,145.103 129.919 C 145.103 130.020,145.321 130.344,145.586 130.638 C 145.852 130.932,146.690 131.957,147.448 132.917 C 148.207 133.876,149.167 135.055,149.582 135.537 C 149.997 136.019,150.338 136.516,150.340 136.640 C 150.343 136.765,150.500 137.024,150.690 137.216 C 150.879 137.407,151.469 138.102,152.000 138.759 C 152.531 139.415,153.121 140.110,153.310 140.302 C 153.500 140.493,153.655 140.773,153.655 140.923 C 153.655 141.073,153.749 141.237,153.864 141.287 C 153.979 141.338,154.506 141.938,155.036 142.621 C 155.565 143.303,156.278 144.147,156.620 144.495 C 156.962 144.844,157.242 145.216,157.242 145.323 C 157.242 145.430,157.563 145.890,157.955 146.345 C 158.346 146.800,158.936 147.525,159.265 147.955 C 159.593 148.385,160.017 148.904,160.207 149.108 C 160.397 149.311,160.552 149.553,160.552 149.645 C 160.552 149.737,160.800 150.088,161.103 150.424 C 161.406 150.760,161.954 151.407,162.321 151.862 C 162.688 152.317,163.052 152.625,163.132 152.546 C 163.211 152.467,162.942 152.010,162.535 151.531 C 162.127 151.053,161.174 149.876,160.418 148.917 C 159.662 147.957,158.978 147.110,158.899 147.034 C 158.820 146.959,158.207 146.152,157.537 145.241 C 156.867 144.331,155.999 143.200,155.608 142.729 C 154.705 141.641,154.478 141.354,152.141 138.345 C 151.081 136.979,150.061 135.676,149.874 135.448 C 149.687 135.221,148.323 133.483,146.842 131.586 C 145.361 129.690,143.992 127.974,143.799 127.773 C 143.354 127.311,143.352 126.762,143.793 126.295 C 144.142 125.925,146.016 123.611,147.350 121.901 C 147.752 121.386,149.024 119.755,150.178 118.276 C 151.332 116.797,152.171 115.586,152.042 115.586 C 151.912 115.586,151.509 115.975,151.145 116.451 M249.822 118.276 C 250.976 119.755,252.248 121.386,252.650 121.901 C 253.984 123.611,255.858 125.925,256.207 126.295 C 256.648 126.762,256.646 127.311,256.201 127.773 C 256.008 127.974,254.639 129.690,253.158 131.586 C 251.677 133.483,250.313 135.221,250.126 135.448 C 249.939 135.676,248.919 136.979,247.859 138.345 C 245.522 141.354,245.295 141.641,244.392 142.729 C 244.001 143.200,243.133 144.331,242.463 145.241 C 241.793 146.152,241.180 146.959,241.101 147.034 C 241.022 147.110,240.338 147.957,239.582 148.917 C 238.826 149.876,237.873 151.053,237.465 151.531 C 237.058 152.010,236.789 152.467,236.868 152.546 C 236.948 152.625,237.312 152.317,237.679 151.862 C 238.046 151.407,238.594 150.760,238.897 150.424 C 239.200 150.088,239.448 149.737,239.448 149.645 C 239.448 149.553,239.603 149.311,239.793 149.108 C 239.983 148.904,240.407 148.385,240.735 147.955 C 241.064 147.525,241.654 146.800,242.045 146.345 C 242.437 145.890,242.758 145.430,242.758 145.323 C 242.758 145.216,243.038 144.844,243.380 144.495 C 243.722 144.147,244.435 143.303,244.964 142.621 C 245.494 141.938,246.021 141.338,246.136 141.287 C 246.251 141.237,246.345 141.073,246.345 140.923 C 246.345 140.773,246.500 140.489,246.690 140.293 C 247.534 139.418,248.276 138.459,248.276 138.243 C 248.276 138.114,248.586 137.775,248.966 137.490 C 249.345 137.206,249.657 136.847,249.660 136.693 C 249.662 136.540,250.003 136.021,250.418 135.540 C 250.833 135.059,251.607 134.095,252.138 133.397 C 252.669 132.699,253.507 131.672,254.000 131.114 C 254.493 130.556,254.897 130.017,254.897 129.917 C 254.897 129.817,255.176 129.423,255.517 129.042 C 257.434 126.898,257.424 127.080,255.714 125.259 C 255.481 125.011,254.923 124.316,254.473 123.715 C 253.395 122.273,253.169 121.985,252.759 121.527 C 252.569 121.316,252.414 121.066,252.414 120.972 C 252.414 120.878,252.103 120.514,251.724 120.162 C 251.345 119.811,251.034 119.445,251.034 119.350 C 251.034 119.186,250.204 118.146,249.448 117.362 C 249.259 117.166,249.103 116.935,249.103 116.850 C 249.103 116.598,248.171 115.586,247.938 115.586 C 247.820 115.586,248.668 116.797,249.822 118.276 M205.103 117.628 C 200.963 119.515,202.717 124.992,207.172 124.090 C 209.357 123.648,210.412 120.735,209.071 118.851 C 208.168 117.583,206.399 117.037,205.103 117.628 M168.107 127.034 C 168.108 129.007,168.152 129.778,168.205 128.747 C 168.258 127.717,168.258 126.103,168.204 125.161 C 168.150 124.219,168.107 125.062,168.107 127.034 M231.831 127.034 C 231.832 129.007,231.876 129.778,231.929 128.747 C 231.982 127.717,231.982 126.103,231.928 125.161 C 231.874 124.219,231.831 125.062,231.831 127.034 M168.340 132.138 C 168.340 132.669,168.397 132.886,168.466 132.621 C 168.535 132.355,168.535 131.921,168.466 131.655 C 168.397 131.390,168.340 131.607,168.340 132.138 M170.791 139.656 C 170.773 139.922,171.007 140.603,171.310 141.169 C 171.614 141.735,171.862 142.011,171.862 141.781 C 171.862 141.552,171.691 141.119,171.481 140.820 C 171.272 140.521,171.038 140.028,170.962 139.724 C 170.848 139.274,170.817 139.262,170.791 139.656 M228.989 139.724 C 228.966 140.028,228.766 140.517,228.543 140.811 C 228.320 141.106,228.138 141.539,228.138 141.773 C 228.138 142.007,228.393 141.723,228.705 141.141 C 229.016 140.560,229.217 139.879,229.150 139.628 C 229.056 139.274,229.020 139.295,228.989 139.724 M172.138 142.273 C 172.138 142.457,172.386 143.014,172.689 143.511 C 173.403 144.682,173.403 144.300,172.690 142.969 C 172.386 142.402,172.138 142.090,172.138 142.273 M227.358 142.837 C 226.711 144.162,226.684 144.439,227.294 143.489 C 227.621 142.980,227.852 142.456,227.807 142.325 C 227.761 142.194,227.559 142.424,227.358 142.837 M174.077 145.260 C 174.066 145.645,175.772 147.862,176.079 147.862 C 176.209 147.862,176.151 147.690,175.951 147.479 C 175.327 146.823,174.702 146.027,174.388 145.485 C 174.222 145.199,174.082 145.098,174.077 145.260 M225.655 145.337 C 225.655 145.466,225.438 145.828,225.172 146.141 C 223.893 147.654,223.744 147.862,223.944 147.862 C 224.061 147.862,224.557 147.343,225.044 146.708 C 225.873 145.630,226.119 145.103,225.793 145.103 C 225.717 145.103,225.655 145.209,225.655 145.337 M179.862 151.724 C 180.287 152.179,180.856 152.552,181.125 152.552 C 181.462 152.552,181.276 152.295,180.532 151.732 C 179.141 150.679,178.883 150.676,179.862 151.724 M219.468 151.732 C 218.872 152.183,218.574 152.552,218.806 152.552 C 219.039 152.552,219.618 152.179,220.095 151.724 C 221.200 150.667,220.870 150.671,219.468 151.732 M137.778 184.751 C 137.194 185.642,136.907 186.002,136.040 186.927 C 135.682 187.308,135.451 187.681,135.526 187.756 C 135.601 187.831,136.142 187.299,136.728 186.575 C 137.314 185.850,137.976 185.037,138.199 184.767 C 138.832 184.002,261.168 184.002,261.801 184.767 C 262.024 185.037,262.686 185.850,263.272 186.575 C 263.858 187.299,264.399 187.831,264.474 187.756 C 264.549 187.681,264.318 187.308,263.960 186.927 C 263.093 186.002,262.806 185.642,262.222 184.751 L 261.730 184.000 200.000 184.000 L 138.270 184.000 137.778 184.751 M134.414 188.872 C 134.224 188.949,134.067 189.156,134.065 189.333 C 134.062 189.510,133.568 190.214,132.966 190.897 C 132.363 191.579,131.869 192.235,131.866 192.354 C 131.864 192.473,132.212 192.163,132.639 191.665 C 133.589 190.558,135.000 188.682,134.860 188.711 C 134.804 188.723,134.603 188.796,134.414 188.872 M265.806 189.719 C 266.968 191.274,268.138 192.599,268.134 192.354 C 268.131 192.235,267.637 191.579,267.034 190.897 C 266.432 190.214,265.938 189.513,265.935 189.340 C 265.933 189.166,265.728 188.947,265.480 188.852 C 265.175 188.734,265.280 189.014,265.806 189.719 M130.759 193.568 C 130.379 194.125,129.945 194.714,129.793 194.877 C 128.696 196.054,127.724 197.306,127.724 197.542 C 127.724 197.697,128.593 196.746,129.655 195.429 C 131.297 193.394,131.847 192.545,131.517 192.554 C 131.479 192.555,131.138 193.011,130.759 193.568 M268.414 192.739 C 268.414 192.902,269.283 194.112,270.345 195.429 C 271.407 196.746,272.276 197.697,272.276 197.542 C 272.276 197.315,270.974 195.631,270.337 195.034 C 270.256 194.959,269.790 194.345,269.302 193.670 C 268.813 192.995,268.414 192.576,268.414 192.739 M127.034 198.169 C 126.235 199.098,126.029 199.448,126.279 199.448 C 126.432 199.448,126.768 199.127,127.025 198.735 C 127.510 197.994,127.517 197.609,127.034 198.169 M272.558 197.957 C 272.567 198.338,273.597 199.598,273.763 199.432 C 273.843 199.352,273.603 198.931,273.230 198.497 C 272.857 198.063,272.554 197.820,272.558 197.957 M124.865 200.947 C 124.220 201.931,124.307 202.141,124.997 201.264 C 125.318 200.856,125.521 200.463,125.448 200.391 C 125.376 200.318,125.113 200.568,124.865 200.947 M274.489 200.370 C 274.486 200.498,274.731 200.918,275.034 201.304 C 275.338 201.690,275.583 201.896,275.580 201.761 C 275.572 201.440,274.497 200.069,274.489 200.370 M123.513 202.557 C 123.250 202.881,123.034 203.262,123.034 203.404 C 123.034 203.545,123.297 203.327,123.618 202.919 C 123.938 202.511,124.154 202.131,124.096 202.073 C 124.038 202.015,123.776 202.233,123.513 202.557 M275.862 202.052 C 275.862 202.165,276.110 202.573,276.414 202.959 C 276.717 203.345,276.966 203.539,276.966 203.390 C 276.966 203.241,276.717 202.833,276.414 202.483 C 276.110 202.133,275.862 201.939,275.862 202.052 M121.259 205.401 C 120.687 205.973,120.117 207.028,120.511 206.784 C 120.863 206.566,122.025 204.966,121.832 204.966 C 121.756 204.966,121.499 205.161,121.259 205.401 M278.616 205.787 C 279.426 206.924,279.912 207.161,279.296 206.118 C 279.016 205.646,278.618 205.194,278.411 205.114 C 278.180 205.026,278.260 205.287,278.616 205.787 M119.227 207.982 C 118.877 208.424,118.228 209.199,117.783 209.704 C 117.338 210.208,116.972 210.794,116.970 211.007 C 116.968 211.219,117.359 210.849,117.841 210.185 C 118.322 209.520,119.005 208.665,119.358 208.284 C 119.905 207.695,120.178 207.166,119.931 207.175 C 119.893 207.176,119.576 207.539,119.227 207.982 M280.000 207.329 C 280.000 207.474,280.289 207.903,280.642 208.284 C 280.995 208.665,281.678 209.520,282.159 210.185 C 282.641 210.849,283.032 211.219,283.030 211.007 C 283.028 210.794,282.686 210.235,282.271 209.763 C 281.857 209.291,281.176 208.491,280.759 207.985 C 280.341 207.480,280.000 207.184,280.000 207.329 M116.273 211.666 C 116.120 211.850,115.564 212.559,115.036 213.241 C 114.508 213.924,113.919 214.648,113.726 214.849 C 113.533 215.051,113.237 215.485,113.068 215.815 C 112.690 216.550,112.968 216.265,114.367 214.485 C 114.962 213.728,115.728 212.798,116.069 212.419 C 116.410 212.040,116.690 211.635,116.690 211.520 C 116.690 211.239,116.604 211.269,116.273 211.666 M283.310 211.500 C 283.310 211.627,283.590 212.040,283.931 212.419 C 284.272 212.798,285.038 213.728,285.633 214.485 C 287.032 216.265,287.310 216.550,286.932 215.815 C 286.763 215.485,286.467 215.051,286.274 214.849 C 286.081 214.648,285.492 213.924,284.966 213.241 C 283.766 211.686,283.310 211.207,283.310 211.500 M111.531 217.586 C 111.106 218.155,110.479 218.930,110.138 219.308 C 109.797 219.685,109.517 220.093,109.517 220.214 C 109.517 220.334,109.867 220.025,110.295 219.527 C 111.464 218.163,112.638 216.552,112.461 216.552 C 112.374 216.552,111.956 217.017,111.531 217.586 M288.155 217.517 C 289.086 218.845,290.612 220.647,290.456 220.234 C 290.325 219.886,288.966 218.141,288.036 217.127 C 287.524 216.569,287.550 216.653,288.155 217.517 M107.981 222.000 C 107.708 222.417,107.322 222.923,107.122 223.123 C 106.922 223.324,106.759 223.624,106.759 223.790 C 106.759 223.956,106.794 224.040,106.837 223.977 C 106.880 223.914,107.385 223.272,107.959 222.552 C 108.533 221.831,108.884 221.241,108.740 221.241 C 108.595 221.241,108.254 221.583,107.981 222.000 M292.015 222.483 C 293.094 223.800,293.322 223.979,293.065 223.310 C 292.978 223.083,292.822 222.897,292.720 222.897 C 292.617 222.897,292.313 222.524,292.044 222.069 C 291.775 221.614,291.430 221.241,291.276 221.241 C 291.123 221.241,291.455 221.800,292.015 222.483 M104.687 226.028 C 104.535 226.202,104.171 226.715,103.880 227.168 C 103.589 227.621,103.063 228.302,102.710 228.682 C 102.357 229.063,102.069 229.472,102.069 229.593 C 102.069 229.839,103.225 228.534,104.402 226.958 C 105.116 226.002,105.335 225.290,104.687 226.028 M294.897 225.794 C 294.897 226.044,295.979 227.537,297.154 228.906 C 297.581 229.405,297.929 229.715,297.926 229.596 C 297.923 229.477,297.488 228.884,296.960 228.279 C 296.432 227.674,296.000 227.103,296.000 227.011 C 296.000 226.919,295.752 226.557,295.448 226.207 C 295.145 225.857,294.897 225.671,294.897 225.794 M101.103 230.621 C 100.800 231.075,100.459 231.447,100.345 231.447 C 100.231 231.448,100.138 231.624,100.138 231.839 C 100.138 232.054,99.983 232.292,99.793 232.369 C 99.573 232.458,99.561 232.516,99.761 232.530 C 99.934 232.542,100.298 232.210,100.571 231.793 C 100.843 231.376,101.230 230.870,101.430 230.670 C 101.743 230.356,101.932 229.792,101.724 229.794 C 101.686 229.794,101.407 230.166,101.103 230.621 M298.207 230.012 C 298.207 230.173,298.370 230.469,298.570 230.670 C 298.770 230.870,299.157 231.376,299.429 231.793 C 299.702 232.210,300.066 232.542,300.239 232.530 C 300.439 232.516,300.427 232.458,300.207 232.369 C 300.017 232.292,299.862 232.064,299.862 231.862 C 299.862 231.660,299.767 231.453,299.650 231.402 C 299.534 231.352,299.161 230.952,298.823 230.515 C 298.484 230.077,298.207 229.851,298.207 230.012 M98.645 233.676 C 98.252 234.143,97.931 234.656,97.931 234.817 C 97.931 234.978,98.202 234.751,98.532 234.313 C 98.863 233.875,99.250 233.362,99.394 233.172 C 99.934 232.456,99.329 232.864,98.645 233.676 M300.604 233.103 C 301.272 234.156,302.069 235.079,302.069 234.800 C 302.069 234.630,301.680 234.086,301.205 233.591 C 300.730 233.095,300.460 232.876,300.604 233.103 M97.241 235.411 C 96.467 236.310,96.231 236.689,96.449 236.681 C 96.718 236.671,97.764 235.324,97.613 235.181 C 97.560 235.131,97.393 235.234,97.241 235.411 M302.354 235.198 C 302.367 235.539,303.432 236.797,303.582 236.648 C 303.648 236.582,303.397 236.173,303.023 235.738 C 302.650 235.304,302.349 235.061,302.354 235.198 M95.089 238.080 C 94.831 238.381,94.621 238.766,94.621 238.937 C 94.621 239.107,94.883 238.913,95.204 238.505 C 95.883 237.642,95.782 237.271,95.089 238.080 M304.716 238.286 C 305.001 238.785,305.276 239.069,305.327 238.916 C 305.377 238.764,305.144 238.356,304.808 238.010 L 304.197 237.379 304.716 238.286 M93.720 239.799 C 93.457 240.123,93.241 240.504,93.241 240.645 C 93.241 240.786,93.504 240.568,93.825 240.161 C 94.145 239.753,94.360 239.372,94.303 239.314 C 94.245 239.257,93.983 239.475,93.720 239.799 M305.655 239.287 C 305.655 239.603,307.098 241.408,307.239 241.267 C 307.309 241.197,307.227 240.976,307.057 240.777 C 306.887 240.577,306.502 240.115,306.202 239.751 C 305.901 239.386,305.655 239.177,305.655 239.287 " stroke="none" fill="#f5f2e6" fill-rule="evenodd"></path><path id="path3" d="M160.345 19.241 C 182.155 19.280,217.845 19.280,239.655 19.241 C 261.466 19.202,243.621 19.171,200.000 19.171 C 156.379 19.171,138.534 19.202,160.345 19.241 M305.931 30.759 C 306.446 31.290,306.929 31.724,307.005 31.724 C 307.081 31.724,306.722 31.290,306.207 30.759 C 305.692 30.228,305.209 29.793,305.133 29.793 C 305.057 29.793,305.416 30.228,305.931 30.759 M80.963 146.483 C 80.963 185.400,80.995 201.321,81.034 181.862 C 81.074 162.403,81.074 130.562,81.034 111.103 C 80.995 91.645,80.963 107.566,80.963 146.483 M319.032 146.483 C 319.032 185.400,319.064 201.321,319.103 181.862 C 319.143 162.403,319.143 130.562,319.103 111.103 C 319.064 91.645,319.032 107.566,319.032 146.483 M162.345 101.517 C 161.763 102.160,162.044 102.271,162.670 101.646 C 163.035 101.280,164.424 101.226,172.883 101.252 C 178.267 101.268,182.744 101.210,182.831 101.123 C 182.917 101.037,178.456 100.966,172.916 100.966 C 163.194 100.966,162.827 100.985,162.345 101.517 M217.169 101.123 C 217.256 101.210,221.733 101.268,227.117 101.252 C 235.576 101.226,236.965 101.280,237.330 101.646 C 237.956 102.271,238.237 102.160,237.655 101.517 C 237.173 100.985,236.806 100.966,227.084 100.966 C 221.544 100.966,217.083 101.037,217.169 101.123 M159.150 105.586 C 157.750 107.369,156.418 109.045,156.190 109.310 C 155.963 109.576,155.889 109.787,156.026 109.779 C 156.164 109.771,157.331 108.396,158.621 106.723 C 161.926 102.436,161.993 102.345,161.837 102.345 C 161.759 102.345,160.550 103.803,159.150 105.586 M238.252 102.621 C 238.412 102.848,239.701 104.524,241.118 106.345 C 242.534 108.166,243.731 109.707,243.777 109.770 C 243.824 109.833,243.912 109.833,243.972 109.770 C 244.091 109.646,239.159 103.302,238.414 102.621 C 238.012 102.253,237.994 102.253,238.252 102.621 M177.640 105.310 L 176.690 106.345 177.724 105.394 C 178.687 104.509,178.885 104.276,178.675 104.276 C 178.629 104.276,178.163 104.741,177.640 105.310 M222.069 105.241 C 222.584 105.772,223.067 106.207,223.143 106.207 C 223.219 106.207,222.860 105.772,222.345 105.241 C 221.830 104.710,221.347 104.276,221.271 104.276 C 221.195 104.276,221.554 104.710,222.069 105.241 M154.759 111.172 C 154.278 111.779,153.947 112.276,154.023 112.276 C 154.098 112.276,154.554 111.779,155.034 111.172 C 155.515 110.566,155.846 110.069,155.770 110.069 C 155.695 110.069,155.239 110.566,154.759 111.172 M245.032 111.275 C 245.526 111.938,246.986 113.816,248.276 115.448 C 250.989 118.882,251.629 119.703,254.069 122.882 C 255.055 124.167,255.966 125.223,256.092 125.230 C 256.219 125.236,255.908 124.733,255.402 124.112 C 254.897 123.490,254.172 122.569,253.793 122.064 C 252.003 119.683,244.354 110.069,244.250 110.069 C 244.185 110.069,244.537 110.612,245.032 111.275 M150.286 116.851 C 148.422 119.215,146.586 121.562,146.207 122.066 C 145.828 122.569,145.103 123.490,144.598 124.112 C 144.092 124.733,143.781 125.235,143.908 125.227 C 144.034 125.219,145.441 123.526,147.034 121.464 C 148.628 119.403,150.839 116.554,151.948 115.134 C 153.057 113.714,153.900 112.552,153.820 112.552 C 153.741 112.552,152.151 114.486,150.286 116.851 M203.685 118.155 C 202.808 118.959,202.677 119.250,202.601 120.569 C 202.515 122.061,202.516 122.062,202.713 120.804 C 202.966 119.195,203.639 118.168,204.767 117.675 C 205.316 117.435,205.470 117.278,205.168 117.264 C 204.901 117.252,204.233 117.653,203.685 118.155 M207.448 117.551 C 207.828 117.701,208.454 118.097,208.840 118.430 C 209.227 118.762,209.135 118.631,208.638 118.138 C 208.140 117.645,207.513 117.249,207.245 117.259 C 206.901 117.271,206.960 117.356,207.448 117.551 M209.698 120.828 C 209.692 122.045,209.741 122.217,209.949 121.697 C 210.108 121.301,210.111 120.713,209.957 120.180 C 209.729 119.394,209.704 119.455,209.698 120.828 M202.759 122.385 C 202.759 122.534,203.162 123.020,203.655 123.466 L 204.552 124.276 203.724 123.312 C 203.269 122.781,202.866 122.295,202.828 122.231 C 202.790 122.167,202.759 122.237,202.759 122.385 M208.051 123.921 C 207.867 124.105,207.036 124.256,206.205 124.256 C 205.163 124.256,204.832 124.333,205.138 124.505 C 205.740 124.842,207.543 124.572,208.319 124.029 C 208.666 123.785,208.823 123.586,208.668 123.586 C 208.513 123.586,208.235 123.737,208.051 123.921 M168.642 127.034 C 168.643 128.097,168.693 128.497,168.753 127.925 C 168.813 127.353,168.812 126.484,168.751 125.994 C 168.690 125.504,168.641 125.972,168.642 127.034 M231.263 127.034 C 231.264 128.097,231.314 128.497,231.374 127.925 C 231.433 127.353,231.432 126.484,231.372 125.994 C 231.311 125.504,231.262 125.972,231.263 127.034 M142.945 126.156 C 142.070 127.086,141.365 125.977,148.829 135.421 C 149.741 136.574,152.267 139.783,154.443 142.552 C 156.620 145.321,158.457 147.586,158.526 147.586 C 158.697 147.586,158.381 147.165,155.034 142.926 C 153.441 140.908,151.828 138.849,151.448 138.350 C 150.306 136.847,148.167 134.122,145.313 130.534 C 143.762 128.584,142.689 126.997,142.795 126.810 C 142.897 126.630,143.167 126.266,143.395 126.000 C 144.007 125.287,143.642 125.413,142.945 126.156 M256.643 126.061 C 257.428 127.224,257.465 127.167,249.948 136.535 C 249.408 137.208,248.717 138.097,248.414 138.510 C 248.110 138.924,246.559 140.912,244.966 142.928 C 241.606 147.181,241.303 147.586,241.479 147.586 C 241.600 147.586,244.929 143.392,254.000 131.812 C 258.101 126.576,257.912 126.950,256.919 126.048 L 256.182 125.379 256.643 126.061 M177.655 148.828 C 178.479 149.662,179.216 150.345,179.291 150.345 C 179.367 150.345,178.755 149.662,177.931 148.828 C 177.107 147.993,176.371 147.310,176.295 147.310 C 176.219 147.310,176.831 147.993,177.655 148.828 M222.060 148.897 L 220.552 150.483 222.138 148.975 C 223.612 147.574,223.851 147.310,223.646 147.310 C 223.603 147.310,222.889 148.024,222.060 148.897 M159.306 148.759 C 159.705 149.252,160.361 150.090,160.765 150.621 C 161.169 151.152,161.844 151.993,162.265 152.490 L 163.030 153.393 200.023 153.393 L 237.016 153.393 238.025 152.119 C 238.580 151.417,239.553 150.206,240.188 149.426 C 240.822 148.646,241.288 147.954,241.222 147.889 C 241.157 147.824,241.063 147.822,241.014 147.885 C 240.965 147.948,240.083 149.089,239.055 150.420 L 237.186 152.840 227.250 152.821 C 221.785 152.810,217.246 152.869,217.163 152.952 C 217.080 153.035,209.356 153.103,200.000 153.103 C 190.644 153.103,182.920 153.035,182.837 152.952 C 182.754 152.869,178.212 152.810,172.743 152.821 L 162.800 152.840 160.917 150.365 C 159.882 149.003,158.932 147.883,158.808 147.876 C 158.683 147.868,158.907 148.266,159.306 148.759 M161.929 154.543 C 161.551 155.018,161.113 155.541,160.956 155.704 C 160.798 155.867,160.302 156.497,159.854 157.103 C 159.405 157.710,158.972 158.269,158.891 158.345 C 158.810 158.421,158.314 159.041,157.788 159.724 C 157.263 160.407,156.606 161.214,156.329 161.517 C 156.053 161.821,155.307 162.751,154.672 163.584 C 154.037 164.417,153.186 165.472,152.781 165.928 C 152.375 166.385,151.320 167.697,150.436 168.844 C 149.551 169.990,148.370 171.480,147.810 172.154 C 147.250 172.828,146.009 174.372,145.051 175.585 C 142.571 178.728,142.544 178.761,141.893 179.491 C 141.568 179.855,141.009 180.583,140.651 181.109 C 140.293 181.635,139.907 182.066,139.793 182.067 C 139.679 182.068,139.586 182.193,139.586 182.345 C 139.586 182.851,140.345 182.629,140.762 182.000 C 140.989 181.659,141.559 180.945,142.031 180.414 C 142.502 179.883,142.890 179.365,142.892 179.263 C 142.895 179.160,143.238 178.722,143.655 178.288 C 144.386 177.528,144.890 176.898,146.069 175.269 C 146.372 174.850,146.811 174.311,147.044 174.071 C 147.277 173.832,147.836 173.143,148.286 172.542 C 148.735 171.940,149.228 171.310,149.379 171.140 C 150.084 170.353,150.836 169.426,151.591 168.414 C 152.043 167.807,152.571 167.144,152.763 166.942 C 152.955 166.739,153.450 166.118,153.863 165.562 C 154.276 165.006,154.802 164.365,155.031 164.138 C 155.261 163.910,155.878 163.165,156.404 162.482 C 156.929 161.800,157.457 161.200,157.576 161.149 C 157.695 161.099,157.793 160.938,157.793 160.792 C 157.793 160.646,158.072 160.234,158.414 159.877 C 158.755 159.520,159.303 158.874,159.632 158.442 C 159.961 158.009,160.550 157.283,160.942 156.828 C 161.334 156.372,161.655 155.913,161.655 155.806 C 161.655 155.699,161.981 155.286,162.379 154.888 C 162.796 154.471,162.999 154.061,162.859 153.921 C 162.719 153.781,162.325 154.045,161.929 154.543 M237.113 153.915 C 237.016 154.073,237.253 154.519,237.640 154.907 C 238.028 155.294,238.345 155.699,238.345 155.806 C 238.345 155.913,238.666 156.372,239.058 156.828 C 239.450 157.283,240.039 158.009,240.368 158.442 C 240.697 158.874,241.245 159.520,241.586 159.877 C 241.928 160.234,242.207 160.646,242.207 160.792 C 242.207 160.938,242.305 161.099,242.424 161.149 C 242.543 161.200,243.071 161.800,243.596 162.482 C 244.122 163.165,244.739 163.910,244.968 164.138 C 245.197 164.365,245.942 165.297,246.623 166.207 C 247.304 167.117,247.986 167.997,248.138 168.162 C 248.290 168.326,248.848 168.998,249.379 169.655 C 249.910 170.312,250.469 170.984,250.621 171.149 C 250.772 171.314,251.265 171.940,251.714 172.542 C 252.164 173.143,252.723 173.836,252.956 174.080 C 253.415 174.562,254.164 175.521,255.034 176.743 C 255.338 177.169,255.928 177.868,256.345 178.297 C 256.762 178.726,257.105 179.160,257.108 179.263 C 257.110 179.365,257.498 179.883,257.969 180.414 C 258.441 180.945,259.011 181.659,259.238 182.000 C 259.464 182.341,259.822 182.621,260.032 182.621 C 260.433 182.621,260.562 182.181,260.207 182.023 C 260.018 181.939,258.857 180.539,256.690 177.783 C 255.309 176.027,253.014 173.164,252.114 172.075 C 251.646 171.509,250.519 170.082,249.610 168.903 C 248.700 167.723,247.625 166.385,247.219 165.928 C 246.814 165.472,245.963 164.417,245.328 163.584 C 244.693 162.751,243.947 161.821,243.671 161.517 C 243.394 161.214,242.737 160.407,242.212 159.724 C 241.686 159.041,241.190 158.421,241.109 158.345 C 241.028 158.269,240.593 157.710,240.141 157.103 C 239.689 156.497,239.108 155.752,238.849 155.448 C 238.590 155.145,238.134 154.611,237.835 154.262 C 237.507 153.880,237.220 153.742,237.113 153.915 M138.089 183.606 C 137.850 183.844,137.655 184.117,137.655 184.213 C 137.655 184.308,137.804 184.237,137.986 184.055 C 138.468 183.573,261.532 183.573,262.014 184.055 C 262.196 184.237,262.345 184.308,262.345 184.213 C 262.345 184.117,262.150 183.844,261.911 183.606 C 261.247 182.942,138.753 182.942,138.089 183.606 " stroke="none" fill="#b89d72" fill-rule="evenodd"></path><path id="path4" d="M116.690 19.326 C 116.111 19.457,116.718 19.484,118.207 19.394 C 119.572 19.311,120.741 19.197,120.805 19.139 C 121.011 18.951,117.679 19.102,116.690 19.326 M279.195 19.139 C 279.259 19.197,280.428 19.314,281.793 19.399 C 283.559 19.509,283.957 19.483,283.172 19.310 C 282.083 19.069,278.972 18.936,279.195 19.139 M113.583 19.851 C 113.013 19.962,112.454 20.145,112.342 20.258 C 112.131 20.470,113.826 20.209,115.034 19.843 C 115.949 19.565,115.029 19.570,113.583 19.851 M284.966 19.829 C 286.115 20.201,287.908 20.452,287.448 20.178 C 287.221 20.042,286.414 19.858,285.655 19.769 C 284.790 19.667,284.533 19.689,284.966 19.829 M108.744 21.287 C 105.572 22.455,106.037 22.523,109.389 21.380 C 110.901 20.865,111.890 20.443,111.586 20.443 C 111.283 20.443,110.004 20.823,108.744 21.287 M290.611 21.380 C 292.123 21.896,293.402 22.276,293.454 22.225 C 293.601 22.077,288.851 20.412,288.330 20.428 C 288.073 20.437,289.099 20.865,290.611 21.380 M105.225 22.745 C 104.709 23.131,104.712 23.139,105.315 22.987 C 105.658 22.901,106.007 22.721,106.090 22.587 C 106.323 22.210,105.818 22.302,105.225 22.745 M293.910 22.587 C 293.993 22.721,294.342 22.901,294.685 22.987 C 295.288 23.139,295.291 23.131,294.775 22.745 C 294.182 22.302,293.677 22.210,293.910 22.587 M102.690 24.008 C 101.893 24.465,101.241 24.899,101.241 24.973 C 101.241 25.082,104.107 23.590,104.529 23.262 C 105.052 22.855,103.852 23.341,102.690 24.008 M295.471 23.262 C 295.893 23.590,298.759 25.082,298.759 24.973 C 298.759 24.793,295.931 23.178,295.609 23.175 C 295.470 23.174,295.408 23.213,295.471 23.262 M98.468 26.690 C 94.634 29.301,86.244 38.336,86.975 39.067 C 87.038 39.129,87.562 38.465,88.140 37.590 C 90.826 33.527,94.247 30.040,98.621 26.908 C 100.988 25.212,101.127 25.103,100.927 25.103 C 100.856 25.103,99.749 25.817,98.468 26.690 M299.579 25.565 C 303.536 28.487,304.636 29.349,306.019 30.618 C 307.828 32.277,310.291 35.218,311.860 37.590 C 312.438 38.465,312.962 39.129,313.025 39.067 C 313.673 38.419,305.732 29.646,302.345 27.267 C 300.424 25.919,298.223 24.564,299.579 25.565 M84.846 42.723 C 84.047 44.269,82.738 47.799,82.851 48.104 C 82.915 48.275,83.063 48.041,83.180 47.586 C 83.298 47.131,83.863 45.672,84.435 44.345 C 85.450 41.990,85.667 41.135,84.846 42.723 M315.549 44.276 C 316.130 45.641,316.702 47.131,316.820 47.586 C 316.937 48.041,317.086 48.273,317.150 48.101 C 317.286 47.734,315.455 43.051,314.884 42.305 C 314.668 42.023,314.967 42.910,315.549 44.276 M82.395 48.933 C 82.292 49.203,82.215 49.632,82.224 49.885 C 82.236 50.189,82.332 50.120,82.508 49.679 C 82.655 49.312,82.732 48.884,82.679 48.727 C 82.627 48.570,82.499 48.663,82.395 48.933 M317.265 48.828 C 317.273 49.055,317.387 49.490,317.517 49.793 L 317.754 50.345 317.769 49.793 C 317.778 49.490,317.664 49.055,317.517 48.828 C 317.280 48.460,317.252 48.460,317.265 48.828 M81.658 51.984 C 81.482 52.834,81.389 53.682,81.453 53.868 C 81.516 54.055,81.709 53.408,81.882 52.432 C 82.273 50.230,82.096 49.876,81.658 51.984 M317.986 51.586 C 318.238 53.411,318.653 54.529,318.458 52.860 C 318.371 52.119,318.191 51.250,318.057 50.929 C 317.894 50.538,317.871 50.756,317.986 51.586 M81.002 55.749 C 80.906 56.228,80.854 60.981,80.886 66.310 L 80.944 76.000 81.093 65.517 C 81.174 59.752,81.227 54.999,81.209 54.956 C 81.191 54.913,81.098 55.270,81.002 55.749 M318.832 63.911 C 318.873 68.891,318.942 73.648,318.987 74.483 C 319.032 75.317,319.079 71.531,319.093 66.069 C 319.106 60.607,319.037 55.850,318.938 55.498 C 318.839 55.145,318.792 58.932,318.832 63.911 M172.414 101.512 C 177.648 101.591,181.621 101.745,181.241 101.855 C 180.862 101.966,180.241 102.042,179.862 102.025 C 179.483 102.008,175.333 102.018,170.640 102.047 C 161.723 102.102,161.412 102.144,161.392 103.310 C 161.390 103.462,161.508 103.400,161.655 103.172 C 161.802 102.945,161.924 102.883,161.927 103.034 C 161.933 103.489,159.445 106.513,159.192 106.357 C 159.064 106.278,158.790 106.429,158.583 106.693 C 158.236 107.136,158.247 107.141,158.735 106.759 C 159.062 106.502,159.219 106.471,159.148 106.677 C 158.956 107.239,155.777 111.180,155.633 111.036 C 155.559 110.961,155.723 110.651,155.998 110.347 C 156.274 110.042,156.386 109.793,156.247 109.793 C 155.923 109.793,155.209 110.909,155.188 111.448 C 155.168 111.966,154.272 113.260,154.071 113.060 C 153.990 112.978,154.184 112.551,154.503 112.111 C 154.822 111.671,154.645 111.804,154.110 112.407 C 153.575 113.011,153.198 113.566,153.273 113.641 C 153.348 113.716,153.525 113.595,153.666 113.371 C 153.807 113.148,153.924 113.078,153.927 113.215 C 153.933 113.603,152.516 115.366,152.339 115.190 C 152.132 114.983,151.170 115.863,151.181 116.250 C 151.185 116.416,151.316 116.334,151.470 116.069 C 151.625 115.803,151.875 115.586,152.027 115.586 C 152.178 115.586,151.906 116.079,151.422 116.681 C 150.938 117.284,150.449 117.720,150.336 117.650 C 150.224 117.580,150.148 117.677,150.169 117.865 C 150.227 118.391,147.491 121.925,147.124 121.799 C 146.945 121.738,146.651 121.867,146.469 122.085 C 146.264 122.333,146.248 122.483,146.426 122.483 C 146.584 122.483,146.776 122.356,146.853 122.200 C 146.935 122.034,146.973 122.030,146.945 122.191 C 146.878 122.571,144.184 126.034,143.940 126.053 C 143.831 126.062,143.820 125.852,143.917 125.586 C 144.025 125.287,143.874 125.365,143.518 125.793 C 143.202 126.172,143.002 126.541,143.073 126.613 C 143.144 126.684,143.295 126.593,143.408 126.410 C 143.522 126.226,143.614 126.526,143.614 127.080 C 143.614 127.631,143.566 127.940,143.508 127.766 C 143.450 127.591,143.280 127.448,143.131 127.448 C 142.982 127.448,143.445 128.193,144.160 129.103 C 144.876 130.014,145.507 130.759,145.564 130.759 C 145.734 130.759,144.730 129.292,144.184 128.740 C 143.906 128.460,143.751 128.157,143.839 128.069 C 143.928 127.980,144.035 127.960,144.079 128.023 C 144.122 128.086,144.618 128.717,145.182 129.426 C 145.746 130.134,146.140 130.887,146.059 131.098 C 145.978 131.310,146.164 131.712,146.473 131.991 C 146.782 132.271,147.034 132.399,147.034 132.276 C 147.034 132.153,147.283 132.277,147.586 132.552 C 148.339 133.233,148.290 133.735,147.535 133.077 C 147.203 132.788,147.348 133.079,147.857 133.724 C 148.921 135.072,149.177 135.231,148.527 134.138 L 148.075 133.379 148.727 134.101 C 149.086 134.498,149.566 135.057,149.793 135.344 C 152.574 138.846,153.148 139.633,153.018 139.763 C 152.934 139.847,152.703 139.655,152.504 139.337 C 152.306 139.019,152.027 138.759,151.886 138.759 C 151.744 138.759,151.914 139.063,152.264 139.436 C 152.614 139.809,153.005 140.088,153.131 140.057 C 153.416 139.987,155.036 141.827,155.025 142.207 C 155.020 142.359,154.772 142.190,154.474 141.832 C 154.175 141.473,153.931 141.299,153.931 141.444 C 153.931 141.796,154.825 142.590,155.172 142.547 C 155.484 142.508,158.619 146.470,158.615 146.897 C 158.613 147.048,158.492 146.986,158.345 146.759 C 158.198 146.531,158.079 146.469,158.082 146.621 C 158.088 146.982,158.760 147.862,159.030 147.862 C 159.145 147.862,159.085 147.676,158.897 147.448 C 158.708 147.221,158.661 147.042,158.794 147.050 C 159.066 147.068,161.767 150.490,161.841 150.912 C 161.870 151.073,161.832 151.070,161.749 150.903 C 161.672 150.748,161.480 150.621,161.323 150.621 C 161.149 150.621,161.170 150.782,161.377 151.031 C 161.564 151.257,161.831 151.372,161.970 151.286 C 162.226 151.128,163.358 152.318,163.150 152.527 C 163.088 152.589,162.758 152.403,162.415 152.113 L 161.793 151.586 162.319 152.207 L 162.844 152.828 172.611 152.828 C 179.075 152.828,182.320 152.734,182.206 152.551 C 182.112 152.398,181.733 152.350,181.363 152.443 C 180.842 152.573,180.510 152.418,179.890 151.754 C 178.922 150.718,179.079 150.654,180.300 151.586 C 181.624 152.596,181.829 152.429,180.553 151.379 C 179.954 150.886,179.223 150.483,178.929 150.483 C 178.634 150.483,178.342 150.297,178.279 150.069 C 178.179 149.707,178.200 149.706,178.447 150.061 C 178.602 150.284,178.795 150.401,178.876 150.320 C 179.092 150.104,176.601 147.731,176.155 147.727 C 175.620 147.723,174.018 145.633,174.196 145.171 C 174.277 144.960,174.046 144.393,173.684 143.911 C 168.219 136.638,167.139 123.977,171.210 114.922 C 171.762 113.694,172.207 112.317,172.198 111.862 C 172.186 111.228,172.230 111.157,172.385 111.558 C 172.562 112.016,172.661 111.956,173.181 111.074 C 173.508 110.521,173.705 109.885,173.620 109.663 C 173.534 109.440,173.725 108.927,174.043 108.523 C 174.689 107.701,174.852 108.003,174.216 108.844 C 173.528 109.752,173.755 109.982,174.472 109.103 C 174.860 108.627,175.086 108.070,175.003 107.791 C 174.857 107.303,179.598 102.345,180.210 102.345 C 180.362 102.345,179.951 102.810,179.297 103.379 C 177.938 104.563,177.331 105.163,176.069 106.571 C 174.354 108.485,175.187 107.908,177.448 105.616 C 178.700 104.347,180.310 102.922,181.026 102.450 C 182.880 101.227,182.941 101.235,172.437 101.305 L 162.897 101.368 172.414 101.512 M217.848 101.416 C 217.752 101.513,218.258 101.978,218.974 102.450 C 219.690 102.922,221.300 104.347,222.552 105.616 C 224.813 107.908,225.646 108.485,223.931 106.571 C 222.669 105.163,222.062 104.563,220.703 103.379 C 220.049 102.810,219.638 102.345,219.790 102.345 C 220.402 102.345,225.143 107.303,224.997 107.791 C 224.914 108.070,225.140 108.627,225.528 109.103 C 226.245 109.982,226.472 109.752,225.784 108.844 C 225.148 108.003,225.311 107.701,225.957 108.523 C 226.275 108.927,226.466 109.440,226.380 109.663 C 226.295 109.885,226.492 110.521,226.819 111.074 C 227.339 111.956,227.438 112.016,227.615 111.558 C 227.770 111.157,227.814 111.228,227.802 111.862 C 227.793 112.317,228.238 113.694,228.790 114.922 C 232.881 124.022,231.905 135.719,226.380 143.793 C 225.991 144.362,225.735 144.991,225.812 145.190 C 225.984 145.639,224.368 147.723,223.845 147.727 C 223.399 147.731,220.908 150.104,221.124 150.320 C 221.205 150.401,221.398 150.284,221.553 150.061 C 221.800 149.706,221.821 149.707,221.721 150.069 C 221.658 150.297,221.366 150.483,221.071 150.483 C 220.777 150.483,220.046 150.886,219.447 151.379 C 218.171 152.429,218.376 152.596,219.700 151.586 C 220.942 150.638,221.145 150.720,220.078 151.740 C 219.443 152.347,219.023 152.540,218.580 152.428 C 218.242 152.343,217.888 152.398,217.794 152.551 C 217.680 152.734,220.925 152.828,227.389 152.828 L 237.156 152.828 237.681 152.207 L 238.207 151.586 237.585 152.113 C 237.242 152.403,236.912 152.589,236.850 152.527 C 236.642 152.318,237.774 151.128,238.030 151.286 C 238.169 151.372,238.436 151.257,238.623 151.031 C 238.830 150.782,238.851 150.621,238.677 150.621 C 238.520 150.621,238.328 150.748,238.251 150.903 C 238.168 151.070,238.130 151.073,238.159 150.912 C 238.233 150.490,240.934 147.068,241.206 147.050 C 241.339 147.042,241.292 147.221,241.103 147.448 C 240.915 147.676,240.855 147.862,240.970 147.862 C 241.240 147.862,241.912 146.982,241.918 146.621 C 241.921 146.469,241.802 146.531,241.655 146.759 C 241.508 146.986,241.387 147.048,241.385 146.897 C 241.381 146.490,244.544 142.459,244.740 142.621 C 244.950 142.793,246.069 141.802,246.069 141.444 C 246.069 141.299,245.825 141.473,245.526 141.832 C 245.228 142.190,244.980 142.359,244.975 142.207 C 244.964 141.827,246.584 139.987,246.869 140.057 C 246.995 140.088,247.386 139.809,247.736 139.436 C 248.086 139.063,248.256 138.759,248.114 138.759 C 247.973 138.759,247.694 139.019,247.496 139.337 C 247.297 139.655,247.066 139.847,246.982 139.763 C 246.852 139.633,247.426 138.846,250.207 135.344 C 250.434 135.057,250.914 134.498,251.273 134.101 L 251.925 133.379 251.473 134.138 C 250.823 135.231,251.079 135.072,252.143 133.724 C 252.652 133.079,252.797 132.788,252.465 133.077 C 252.134 133.366,251.867 133.490,251.872 133.353 C 251.889 132.951,253.784 130.862,253.789 131.241 C 253.791 131.431,253.682 131.586,253.547 131.586 C 253.411 131.586,253.220 131.796,253.121 132.053 C 252.966 132.458,253.019 132.451,253.515 132.002 C 253.830 131.717,254.022 131.310,253.941 131.098 C 253.860 130.887,254.254 130.134,254.818 129.426 C 255.382 128.717,255.878 128.086,255.921 128.023 C 255.965 127.960,256.072 127.980,256.161 128.069 C 256.249 128.157,256.094 128.460,255.816 128.740 C 255.270 129.292,254.266 130.759,254.436 130.759 C 254.493 130.759,255.124 130.014,255.840 129.103 C 256.555 128.193,257.008 127.448,256.846 127.448 C 256.684 127.448,256.552 127.593,256.552 127.770 C 256.552 127.947,256.486 128.026,256.406 127.946 C 256.326 127.866,256.389 127.464,256.545 127.052 C 256.768 126.465,256.733 126.174,256.381 125.703 C 256.062 125.278,255.980 125.244,256.095 125.586 C 256.185 125.852,256.169 126.062,256.060 126.053 C 255.816 126.034,253.122 122.571,253.055 122.191 C 253.027 122.030,253.065 122.034,253.147 122.200 C 253.224 122.356,253.416 122.483,253.574 122.483 C 253.748 122.483,253.727 122.321,253.520 122.072 C 253.332 121.846,253.065 121.731,252.927 121.817 C 252.788 121.903,252.434 121.684,252.139 121.331 C 251.542 120.615,251.417 120.139,251.905 120.440 C 252.104 120.563,252.148 120.516,252.024 120.314 C 251.914 120.136,251.726 120.051,251.607 120.125 C 251.349 120.285,249.533 118.099,249.746 117.886 C 249.827 117.805,250.055 118.000,250.254 118.318 C 250.453 118.636,250.731 118.897,250.873 118.897 C 251.015 118.897,250.843 118.590,250.491 118.215 C 250.139 117.841,249.763 117.589,249.655 117.655 C 249.547 117.722,249.062 117.284,248.578 116.681 C 248.094 116.079,247.822 115.586,247.973 115.586 C 248.125 115.586,248.375 115.803,248.530 116.069 C 248.684 116.334,248.815 116.416,248.819 116.250 C 248.830 115.863,247.868 114.983,247.661 115.190 C 247.484 115.366,246.067 113.603,246.073 113.215 C 246.076 113.078,246.193 113.148,246.334 113.371 C 246.475 113.595,246.660 113.708,246.745 113.623 C 246.830 113.537,246.630 113.231,246.299 112.941 C 245.969 112.651,245.789 112.569,245.900 112.759 C 246.011 112.948,245.983 113.103,245.839 113.103 C 245.694 113.103,245.510 112.948,245.429 112.759 C 245.348 112.569,244.282 111.172,243.060 109.655 C 240.907 106.981,240.315 106.013,241.310 106.794 C 241.747 107.136,241.757 107.127,241.417 106.693 C 241.210 106.429,240.936 106.278,240.808 106.357 C 240.555 106.513,238.067 103.489,238.073 103.034 C 238.076 102.883,238.198 102.945,238.345 103.172 C 238.492 103.400,238.610 103.462,238.608 103.310 C 238.588 102.141,238.283 102.100,229.391 102.077 C 224.715 102.065,220.785 101.990,220.657 101.911 C 220.530 101.832,220.203 101.886,219.932 102.031 C 219.594 102.212,219.224 102.177,218.754 101.918 C 218.162 101.592,219.356 101.530,227.586 101.456 L 237.103 101.372 227.563 101.307 C 222.316 101.271,217.944 101.320,217.848 101.416 M160.033 104.828 C 159.545 105.435,159.276 105.931,159.435 105.931 C 159.594 105.931,159.724 105.837,159.724 105.721 C 159.724 105.606,160.047 105.163,160.442 104.738 C 160.836 104.312,161.105 103.910,161.040 103.844 C 160.974 103.778,160.521 104.221,160.033 104.828 M238.901 103.813 C 238.898 103.937,239.080 104.223,239.304 104.447 C 239.528 104.671,239.898 105.120,240.125 105.445 C 240.353 105.770,240.592 105.981,240.658 105.914 C 240.723 105.848,240.355 105.297,239.840 104.690 C 239.326 104.083,238.903 103.688,238.901 103.813 M244.056 110.474 C 244.329 110.849,244.651 111.159,244.771 111.164 C 244.892 111.169,244.768 110.866,244.496 110.491 C 244.223 110.117,243.901 109.807,243.780 109.802 C 243.659 109.797,243.783 110.100,244.056 110.474 M171.582 113.112 C 171.137 113.942,170.968 113.632,171.382 112.748 C 171.570 112.346,171.763 112.131,171.811 112.270 C 171.859 112.408,171.756 112.787,171.582 113.112 M228.957 113.618 C 228.938 113.994,228.138 112.697,228.140 112.292 C 228.141 112.056,228.327 112.218,228.553 112.652 C 228.780 113.087,228.962 113.521,228.957 113.618 M148.496 119.511 C 147.883 120.302,147.822 120.647,148.401 120.051 C 148.742 119.699,148.964 119.355,148.895 119.285 C 148.825 119.216,148.646 119.317,148.496 119.511 M145.103 123.862 C 144.623 124.469,144.333 124.963,144.460 124.960 C 144.698 124.954,146.344 122.759,146.110 122.759 C 146.037 122.759,145.584 123.255,145.103 123.862 M254.534 123.856 C 254.961 124.460,255.414 124.956,255.540 124.960 C 255.667 124.963,255.377 124.469,254.897 123.862 C 253.769 122.438,253.528 122.434,254.534 123.856 M168.205 128.747 C 168.152 129.778,168.108 129.007,168.107 127.034 C 168.107 125.062,168.150 124.219,168.204 125.161 C 168.258 126.103,168.258 127.717,168.205 128.747 M231.929 128.747 C 231.876 129.778,231.832 129.007,231.831 127.034 C 231.831 125.062,231.874 124.219,231.928 125.161 C 231.982 126.103,231.982 127.717,231.929 128.747 M147.034 131.930 C 147.034 132.084,146.852 132.054,146.621 131.862 C 146.393 131.673,146.207 131.395,146.207 131.243 C 146.207 131.089,146.390 131.119,146.621 131.310 C 146.848 131.499,147.034 131.778,147.034 131.930 M168.466 132.621 C 168.397 132.886,168.340 132.669,168.340 132.138 C 168.340 131.607,168.397 131.390,168.466 131.655 C 168.535 131.921,168.535 132.355,168.466 132.621 M149.558 135.997 C 149.893 136.450,150.220 136.769,150.283 136.705 C 150.437 136.551,149.439 135.192,149.164 135.181 C 149.046 135.176,149.223 135.543,149.558 135.997 M250.111 135.890 C 249.830 136.275,249.653 136.642,249.717 136.705 C 249.780 136.769,250.107 136.450,250.442 135.997 C 250.777 135.543,250.954 135.176,250.836 135.181 C 250.718 135.186,250.391 135.505,250.111 135.890 M171.481 140.820 C 171.691 141.119,171.862 141.552,171.862 141.781 C 171.862 142.011,171.614 141.735,171.310 141.169 C 171.007 140.603,170.773 139.922,170.791 139.656 C 170.817 139.262,170.848 139.274,170.962 139.724 C 171.038 140.028,171.272 140.521,171.481 140.820 M228.705 141.141 C 228.393 141.723,228.138 142.007,228.138 141.773 C 228.138 141.539,228.320 141.106,228.543 140.811 C 228.766 140.517,228.966 140.028,228.989 139.724 C 229.020 139.295,229.056 139.274,229.150 139.628 C 229.217 139.879,229.016 140.560,228.705 141.141 M173.240 144.206 C 173.240 144.320,172.992 144.007,172.689 143.511 C 172.386 143.014,172.138 142.457,172.138 142.273 C 172.138 142.090,172.386 142.402,172.690 142.969 C 172.993 143.535,173.241 144.092,173.240 144.206 M227.294 143.489 C 226.684 144.439,226.711 144.162,227.358 142.837 C 227.559 142.424,227.761 142.194,227.807 142.325 C 227.852 142.456,227.621 142.980,227.294 143.489 M156.723 145.103 C 157.751 146.383,158.017 146.537,157.320 145.448 C 156.749 144.556,156.245 144.000,156.007 144.000 C 155.913 144.000,156.235 144.497,156.723 145.103 M243.446 144.355 C 243.011 144.878,242.183 146.207,242.292 146.207 C 242.346 146.207,242.789 145.710,243.277 145.103 C 243.765 144.497,244.065 144.005,243.944 144.010 C 243.823 144.016,243.599 144.171,243.446 144.355 M174.345 145.290 C 174.345 145.444,174.655 145.930,175.034 146.371 C 175.413 146.812,175.724 147.266,175.724 147.379 C 175.724 147.493,175.848 147.586,176.000 147.586 C 176.152 147.586,176.271 147.493,176.264 147.379 C 176.246 147.050,174.345 144.981,174.345 145.290 M224.591 146.228 C 224.082 146.842,223.750 147.428,223.853 147.531 C 223.957 147.635,224.145 147.534,224.272 147.308 C 224.399 147.082,224.763 146.598,225.079 146.234 C 225.568 145.671,225.829 145.091,225.586 145.108 C 225.548 145.111,225.101 145.615,224.591 146.228 M136.930 185.310 C 136.204 186.182,135.424 187.121,135.195 187.396 C 134.833 187.833,134.831 187.931,135.183 188.181 C 135.516 188.416,135.503 188.439,135.112 188.314 C 134.560 188.137,104.677 225.189,104.979 225.676 C 105.148 225.951,104.369 227.130,102.846 228.906 C 102.419 229.405,102.071 229.715,102.074 229.596 C 102.077 229.477,102.512 228.884,103.040 228.279 C 103.568 227.674,104.000 227.093,104.000 226.988 C 104.000 226.884,104.201 226.597,104.447 226.351 C 104.692 226.106,104.833 225.845,104.760 225.772 C 104.503 225.515,101.521 229.481,101.673 229.878 C 101.757 230.096,101.654 230.445,101.446 230.654 C 101.237 230.863,100.843 231.376,100.571 231.793 C 100.298 232.210,99.934 232.542,99.761 232.530 C 99.561 232.516,99.573 232.458,99.793 232.369 C 99.983 232.292,100.138 232.111,100.138 231.965 C 100.138 231.819,100.448 231.365,100.828 230.956 C 101.448 230.287,101.696 229.793,101.413 229.793 C 100.951 229.793,92.717 240.590,92.854 241.014 C 92.978 241.395,92.952 241.425,92.748 241.140 C 92.535 240.841,92.347 240.941,91.843 241.622 C 90.998 242.765,91.026 242.779,89.356 240.483 C 87.729 238.246,87.087 237.509,87.856 238.759 C 89.984 242.217,90.994 243.065,91.885 242.138 L 92.482 241.517 92.157 242.148 C 91.978 242.495,91.906 243.014,91.997 243.300 C 92.355 244.428,101.182 251.586,102.215 251.586 C 102.293 251.586,102.819 251.874,103.385 252.225 C 103.951 252.576,105.283 253.211,106.345 253.636 C 107.407 254.061,108.524 254.509,108.828 254.632 C 109.131 254.754,110.124 255.059,111.034 255.308 C 118.039 257.230,111.766 257.103,200.000 257.103 C 288.234 257.103,281.961 257.230,288.966 255.308 C 289.876 255.059,290.869 254.754,291.172 254.632 C 291.476 254.509,292.593 254.061,293.655 253.636 C 294.717 253.211,296.049 252.576,296.615 252.225 C 297.181 251.874,297.707 251.586,297.785 251.586 C 298.378 251.586,302.293 248.716,305.451 245.966 C 307.938 243.801,308.356 243.141,307.856 242.173 L 307.518 241.517 308.128 242.153 C 308.464 242.502,308.883 242.742,309.059 242.686 C 309.394 242.578,311.840 239.439,312.334 238.483 C 312.752 237.675,312.283 238.230,310.636 240.494 C 309.831 241.601,309.078 242.469,308.964 242.425 C 308.849 242.381,306.675 239.738,304.134 236.552 C 299.153 230.309,298.483 229.525,298.483 229.942 C 298.483 230.091,298.793 230.547,299.172 230.956 C 299.552 231.365,299.862 231.819,299.862 231.965 C 299.862 232.111,300.017 232.292,300.207 232.369 C 300.427 232.458,300.439 232.516,300.239 232.530 C 300.066 232.542,299.702 232.210,299.429 231.793 C 299.157 231.376,298.763 230.863,298.554 230.654 C 298.346 230.445,298.243 230.096,298.327 229.878 C 298.479 229.481,295.497 225.515,295.240 225.772 C 295.167 225.845,295.308 226.106,295.553 226.351 C 295.799 226.597,296.000 226.884,296.000 226.988 C 296.000 227.093,296.432 227.674,296.960 228.279 C 297.488 228.884,297.923 229.477,297.926 229.596 C 297.929 229.715,297.581 229.405,297.154 228.906 C 295.631 227.130,294.852 225.951,295.021 225.676 C 295.323 225.189,265.440 188.137,264.888 188.314 C 264.500 188.438,264.486 188.415,264.814 188.183 C 265.142 187.950,264.916 187.537,263.556 185.881 L 261.898 183.862 200.074 183.792 L 138.251 183.723 136.930 185.310 M262.222 184.751 C 262.806 185.642,263.093 186.002,263.960 186.927 C 264.318 187.308,264.549 187.681,264.474 187.756 C 264.399 187.831,263.858 187.299,263.272 186.575 C 262.686 185.850,262.024 185.037,261.801 184.767 C 261.168 184.002,138.832 184.002,138.199 184.767 C 137.976 185.037,137.314 185.850,136.728 186.575 C 136.142 187.299,135.601 187.831,135.526 187.756 C 135.451 187.681,135.682 187.308,136.040 186.927 C 136.907 186.002,137.194 185.642,137.778 184.751 L 138.270 184.000 200.000 184.000 L 261.730 184.000 262.222 184.751 M134.189 189.724 C 133.031 191.274,131.862 192.599,131.866 192.354 C 131.869 192.235,132.363 191.579,132.966 190.897 C 133.568 190.214,134.062 189.510,134.065 189.333 C 134.068 189.065,134.392 188.812,134.860 188.711 C 134.916 188.699,134.614 189.155,134.189 189.724 M265.935 189.340 C 265.938 189.513,266.432 190.214,267.034 190.897 C 267.637 191.579,268.131 192.235,268.134 192.354 C 268.138 192.599,266.968 191.274,265.806 189.719 C 265.280 189.014,265.175 188.734,265.480 188.852 C 265.728 188.947,265.933 189.166,265.935 189.340 M131.586 192.793 C 131.586 192.926,130.717 194.112,129.655 195.429 C 128.593 196.746,127.724 197.697,127.724 197.542 C 127.724 197.306,128.696 196.054,129.793 194.877 C 129.945 194.714,130.379 194.125,130.759 193.568 C 131.487 192.498,131.586 192.406,131.586 192.793 M270.337 195.034 C 270.974 195.631,272.276 197.315,272.276 197.542 C 272.276 197.697,271.407 196.746,270.345 195.429 C 269.283 194.112,268.414 192.902,268.414 192.739 C 268.414 192.576,268.813 192.995,269.302 193.670 C 269.790 194.345,270.256 194.959,270.337 195.034 M127.025 198.735 C 126.768 199.127,126.432 199.448,126.279 199.448 C 126.029 199.448,126.235 199.098,127.034 198.169 C 127.517 197.609,127.510 197.994,127.025 198.735 M273.763 199.432 C 273.597 199.598,272.567 198.338,272.558 197.957 C 272.554 197.820,272.857 198.063,273.230 198.497 C 273.603 198.931,273.843 199.352,273.763 199.432 M124.997 201.264 C 124.676 201.672,124.414 201.922,124.414 201.821 C 124.414 201.494,125.311 200.254,125.448 200.391 C 125.521 200.463,125.318 200.856,124.997 201.264 M275.580 201.761 C 275.583 201.896,275.338 201.690,275.034 201.304 C 274.731 200.918,274.486 200.498,274.489 200.370 C 274.497 200.069,275.572 201.440,275.580 201.761 M123.618 202.919 C 123.297 203.327,123.034 203.545,123.034 203.404 C 123.034 203.082,123.953 201.930,124.096 202.073 C 124.154 202.131,123.938 202.511,123.618 202.919 M276.966 203.390 C 276.966 203.539,276.717 203.345,276.414 202.959 C 276.110 202.573,275.862 202.165,275.862 202.052 C 275.862 201.939,276.110 202.133,276.414 202.483 C 276.717 202.833,276.966 203.241,276.966 203.390 M121.385 205.785 C 120.663 206.799,120.090 207.207,120.522 206.400 C 120.844 205.799,121.605 204.966,121.832 204.966 C 121.907 204.966,121.706 205.334,121.385 205.785 M279.296 206.118 C 279.912 207.161,279.426 206.924,278.616 205.787 C 278.260 205.287,278.180 205.026,278.411 205.114 C 278.618 205.194,279.016 205.646,279.296 206.118 M120.000 207.382 C 120.000 207.497,119.711 207.903,119.358 208.284 C 119.005 208.665,118.322 209.520,117.841 210.185 C 117.359 210.849,116.968 211.219,116.970 211.007 C 116.972 210.794,117.338 210.208,117.783 209.704 C 118.228 209.199,118.877 208.424,119.227 207.982 C 119.903 207.126,120.000 207.050,120.000 207.382 M282.271 209.763 C 282.686 210.235,283.028 210.794,283.030 211.007 C 283.032 211.219,282.641 210.849,282.159 210.185 C 281.678 209.520,280.995 208.665,280.642 208.284 C 280.289 207.903,280.000 207.474,280.000 207.329 C 280.000 207.184,280.341 207.480,280.759 207.985 C 281.176 208.491,281.857 209.291,282.271 209.763 M116.690 211.520 C 116.690 211.635,116.410 212.040,116.069 212.419 C 115.728 212.798,114.962 213.728,114.367 214.485 C 112.968 216.265,112.690 216.550,113.068 215.815 C 113.237 215.485,113.533 215.051,113.726 214.849 C 113.919 214.648,114.508 213.924,115.036 213.241 C 116.608 211.207,116.690 211.122,116.690 211.520 M284.966 213.241 C 285.492 213.924,286.081 214.648,286.274 214.849 C 286.467 215.051,286.763 215.485,286.932 215.815 C 287.310 216.550,287.032 216.265,285.633 214.485 C 285.038 213.728,284.272 212.798,283.931 212.419 C 283.590 212.040,283.310 211.627,283.310 211.500 C 283.310 211.207,283.766 211.686,284.966 213.241 M111.845 217.586 C 110.673 219.155,109.517 220.459,109.517 220.214 C 109.517 220.093,109.797 219.685,110.138 219.308 C 110.479 218.930,111.106 218.155,111.531 217.586 C 111.956 217.017,112.374 216.552,112.461 216.552 C 112.547 216.552,112.270 217.017,111.845 217.586 M289.517 218.889 C 290.617 220.284,290.785 220.782,289.748 219.575 C 288.607 218.247,287.143 216.154,288.036 217.127 C 288.395 217.519,289.062 218.312,289.517 218.889 M80.855 218.644 C 80.870 219.541,80.982 220.586,81.105 220.966 C 81.233 221.363,81.263 220.721,81.176 219.448 C 80.997 216.813,80.817 216.360,80.855 218.644 M318.945 218.207 C 318.915 218.890,318.830 219.945,318.757 220.552 L 318.623 221.655 318.911 220.736 C 319.070 220.231,319.154 219.176,319.099 218.392 L 318.999 216.966 318.945 218.207 M107.959 222.552 C 107.385 223.272,106.880 223.914,106.837 223.977 C 106.794 224.040,106.759 223.956,106.759 223.790 C 106.759 223.624,106.922 223.324,107.122 223.123 C 107.322 222.923,107.708 222.417,107.981 222.000 C 108.254 221.583,108.595 221.241,108.740 221.241 C 108.884 221.241,108.533 221.831,107.959 222.552 M292.044 222.069 C 292.313 222.524,292.617 222.897,292.720 222.897 C 292.822 222.897,292.978 223.083,293.065 223.310 C 293.322 223.979,293.094 223.800,292.015 222.483 C 291.455 221.800,291.123 221.241,291.276 221.241 C 291.430 221.241,291.775 221.614,292.044 222.069 M81.558 223.724 C 81.650 224.407,81.832 225.214,81.962 225.517 C 82.248 226.186,81.957 224.202,81.618 223.172 C 81.468 222.719,81.448 222.907,81.558 223.724 M318.108 224.177 C 317.935 225.041,317.844 225.798,317.907 225.861 C 317.970 225.924,318.167 225.272,318.345 224.414 C 318.523 223.555,318.614 222.798,318.546 222.730 C 318.479 222.663,318.282 223.314,318.108 224.177 M82.226 226.673 C 82.216 227.006,82.331 227.355,82.483 227.448 C 82.809 227.650,82.809 227.380,82.483 226.621 C 82.254 226.089,82.245 226.091,82.226 226.673 M317.549 226.391 C 317.532 226.568,317.437 226.941,317.339 227.219 C 317.200 227.611,317.237 227.653,317.503 227.409 C 317.691 227.235,317.786 226.863,317.713 226.581 C 317.641 226.299,317.567 226.214,317.549 226.391 M82.759 228.343 C 82.759 228.757,83.921 231.757,84.037 231.641 C 84.135 231.544,83.069 228.363,82.871 228.161 C 82.809 228.098,82.759 228.180,82.759 228.343 M316.462 229.842 C 315.703 232.067,315.877 232.241,316.690 230.069 C 317.034 229.149,317.255 228.336,317.181 228.262 C 317.108 228.188,316.784 228.899,316.462 229.842 M84.138 232.103 C 84.138 232.379,85.228 234.483,85.371 234.483 C 85.437 234.483,85.267 233.985,84.995 233.376 C 84.501 232.272,84.138 231.733,84.138 232.103 M315.318 232.670 C 315.162 233.081,314.906 233.656,314.749 233.950 C 314.592 234.243,314.527 234.483,314.605 234.483 C 314.842 234.483,315.912 232.233,315.751 232.073 C 315.669 231.991,315.474 232.259,315.318 232.670 M99.394 233.172 C 99.250 233.362,98.863 233.875,98.532 234.313 C 98.202 234.751,97.931 234.978,97.931 234.817 C 97.931 234.505,99.260 232.828,99.507 232.828 C 99.588 232.828,99.537 232.983,99.394 233.172 M302.069 234.800 C 302.069 234.970,301.798 234.751,301.468 234.313 C 300.408 232.910,300.319 232.666,301.205 233.591 C 301.680 234.086,302.069 234.630,302.069 234.800 M97.200 235.972 C 96.919 236.357,96.581 236.676,96.449 236.681 C 96.231 236.689,96.467 236.310,97.241 235.411 C 97.749 234.821,97.716 235.264,97.200 235.972 M303.582 236.648 C 303.432 236.797,302.367 235.539,302.354 235.198 C 302.349 235.061,302.650 235.304,303.023 235.738 C 303.397 236.173,303.648 236.582,303.582 236.648 M95.204 238.505 C 94.883 238.913,94.621 239.107,94.621 238.937 C 94.621 238.568,95.506 237.483,95.672 237.649 C 95.735 237.712,95.525 238.098,95.204 238.505 M305.327 238.916 C 305.276 239.069,305.001 238.785,304.716 238.286 L 304.197 237.379 304.808 238.010 C 305.144 238.356,305.377 238.764,305.327 238.916 M93.825 240.161 C 93.504 240.568,93.241 240.786,93.241 240.645 C 93.241 240.324,94.160 239.172,94.303 239.314 C 94.360 239.372,94.145 239.753,93.825 240.161 M307.057 240.777 C 307.227 240.976,307.309 241.197,307.239 241.267 C 307.098 241.408,305.655 239.603,305.655 239.287 C 305.655 239.177,305.901 239.386,306.202 239.751 C 306.502 240.115,306.887 240.577,307.057 240.777 " stroke="none" fill="#f3d9a4" fill-rule="evenodd"></path></g></svg>